<svg width="314" height="354" viewBox="0 0 314 354" fill="none" xmlns="http://www.w3.org/2000/svg">
<path opacity="0.4" fill-rule="evenodd" clip-rule="evenodd" d="M220.053 46.4192C250.152 48.8571 277.582 4.18805 304.696 17.4765C331.91 30.8132 312.794 80.7111 334.064 102.294C359.075 127.672 413.937 113.634 430.533 145.161C445.288 173.189 420.11 207.885 404.008 235.161C389.821 259.192 365.831 274.665 343.895 291.918C325.551 306.346 305.149 316.34 285.263 328.557C263.343 342.023 245.781 368.019 220.053 368C194.321 367.981 180.107 333.582 154.89 328.459C118.618 321.089 69.3908 360.6 45.3143 332.495C21.7445 304.982 76.5148 263.095 68.6108 227.743C60.7621 192.638 5.52559 179.573 3.09967 143.684C0.89577 111.079 35.7474 87.9856 57.5161 63.6071C78.4768 40.1334 97.236 6.51824 128.537 3.20827C162.512 -0.384571 186 43.661 220.053 46.4192Z" stroke="url(#paint0_linear)" stroke-width="5"/>
<defs>
<linearGradient id="paint0_linear" x1="219" y1="3" x2="219" y2="368" gradientUnits="userSpaceOnUse">
<stop stop-color="#6C63FF"/>
<stop offset="1" stop-color="#63FFF6"/>
</linearGradient>
</defs>
</svg>
