<svg width="115" height="27" viewBox="0 0 115 27" fill="none" xmlns="http://www.w3.org/2000/svg">
<path d="M0.318078 0.799998H6.15008V21.248H18.7861V26H0.318078V0.799998ZM33.8268 26.432C31.2108 26.432 28.8468 25.868 26.7348 24.74C24.6468 23.612 23.0028 22.064 21.8028 20.096C20.6268 18.104 20.0388 15.872 20.0388 13.4C20.0388 10.928 20.6268 8.708 21.8028 6.74C23.0028 4.748 24.6468 3.188 26.7348 2.06C28.8468 0.931999 31.2108 0.368 33.8268 0.368C36.4428 0.368 38.7948 0.931999 40.8828 2.06C42.9708 3.188 44.6148 4.748 45.8148 6.74C47.0148 8.708 47.6148 10.928 47.6148 13.4C47.6148 15.872 47.0148 18.104 45.8148 20.096C44.6148 22.064 42.9708 23.612 40.8828 24.74C38.7948 25.868 36.4428 26.432 33.8268 26.432ZM33.8268 21.464C35.3148 21.464 36.6588 21.128 37.8588 20.456C39.0588 19.76 39.9948 18.8 40.6668 17.576C41.3628 16.352 41.7108 14.96 41.7108 13.4C41.7108 11.84 41.3628 10.448 40.6668 9.224C39.9948 8 39.0588 7.052 37.8588 6.38C36.6588 5.684 35.3148 5.336 33.8268 5.336C32.3388 5.336 30.9948 5.684 29.7948 6.38C28.5948 7.052 27.6468 8 26.9508 9.224C26.2788 10.448 25.9428 11.84 25.9428 13.4C25.9428 14.96 26.2788 16.352 26.9508 17.576C27.6468 18.8 28.5948 19.76 29.7948 20.456C30.9948 21.128 32.3388 21.464 33.8268 21.464ZM69.0258 13.004H74.3538V23.228C72.9858 24.26 71.4018 25.052 69.6018 25.604C67.8018 26.156 65.9898 26.432 64.1658 26.432C61.5498 26.432 59.1978 25.88 57.1098 24.776C55.0218 23.648 53.3778 22.1 52.1778 20.132C51.0018 18.14 50.4138 15.896 50.4138 13.4C50.4138 10.904 51.0018 8.672 52.1778 6.704C53.3778 4.712 55.0338 3.164 57.1458 2.06C59.2578 0.931999 61.6338 0.368 64.2738 0.368C66.4818 0.368 68.4858 0.739999 70.2858 1.484C72.0858 2.228 73.5978 3.308 74.8218 4.724L71.0778 8.18C69.2778 6.284 67.1058 5.336 64.5618 5.336C62.9538 5.336 61.5258 5.672 60.2778 6.344C59.0298 7.016 58.0578 7.964 57.3618 9.188C56.6658 10.412 56.3178 11.816 56.3178 13.4C56.3178 14.96 56.6658 16.352 57.3618 17.576C58.0578 18.8 59.0178 19.76 60.2418 20.456C61.4898 21.128 62.9058 21.464 64.4898 21.464C66.1698 21.464 67.6818 21.104 69.0258 20.384V13.004ZM79.7712 0.799998H85.6032V26H79.7712V0.799998ZM114.696 0.799998V26H109.908L97.3437 10.7V26H91.5837V0.799998H96.4077L108.936 16.1V0.799998H114.696Z" fill="#4E47BB"/>
</svg>
