<svg id="svg" version="1.1" xmlns="http://www.w3.org/2000/svg" xmlns:xlink="http://www.w3.org/1999/xlink" width="400" height="400" viewBox="0, 0, 400,400"><g id="svgg"><path id="path0" d="M166.228 153.091 C 137.258 155.676,120.938 188.885,136.384 213.822 C 147.801 232.252,172.688 238.266,190.872 226.987 L 192.974 225.683 193.754 226.307 C 199.519 230.923,212.565 233.617,222.000 232.141 C 242.285 228.967,257.027 210.160,255.223 189.755 C 254.757 184.482,254.180 182.093,253.267 181.656 C 252.412 181.246,252.319 180.873,253.042 180.752 C 253.957 180.599,251.541 174.968,248.715 170.668 C 237.019 152.874,211.446 147.424,194.225 159.056 L 192.953 159.915 191.356 158.883 C 184.381 154.374,175.300 152.281,166.228 153.091 M173.875 155.747 C 179.700 156.345,185.778 158.422,190.084 161.286 C 190.342 161.458,189.637 162.322,187.406 164.565 C 182.703 169.294,176.839 179.077,177.535 181.031 C 177.607 181.231,177.531 181.478,177.368 181.579 C 175.888 182.493,175.290 195.693,176.486 201.035 C 178.358 209.392,182.425 216.559,188.443 222.104 C 189.571 223.144,190.443 224.038,190.380 224.091 C 189.653 224.704,185.421 226.865,183.522 227.592 C 162.024 235.818,137.789 222.191,133.742 199.600 C 133.506 198.280,133.053 196.360,132.736 195.333 C 131.851 192.466,131.928 188.708,132.918 186.400 C 133.327 185.447,134.126 183.347,134.693 181.733 C 140.812 164.330,156.450 153.959,173.875 155.747 M222.668 156.267 C 237.276 159.244,248.878 170.590,251.873 184.830 C 252.849 189.470,253.131 196.296,252.444 198.669 C 252.211 199.474,251.763 201.153,251.447 202.400 C 245.736 224.991,219.897 236.563,198.800 225.977 C 194.938 224.039,195.014 224.423,197.921 221.549 C 203.235 216.296,207.308 209.459,208.772 203.333 C 208.947 202.600,209.153 201.790,209.230 201.533 C 209.350 201.132,209.180 201.067,208.010 201.067 C 207.150 201.067,206.615 201.189,206.556 201.400 C 204.311 209.384,201.230 214.616,195.708 219.826 L 192.997 222.384 192.310 221.843 C 173.689 207.196,173.732 178.533,192.397 163.692 C 193.395 162.899,197.989 167.331,201.286 172.267 L 202.800 174.533 203.768 173.538 L 204.735 172.543 203.298 170.442 C 201.319 167.550,198.712 164.546,196.798 162.953 L 195.193 161.617 197.263 160.404 C 204.599 156.105,214.200 154.541,222.668 156.267 M205.705 178.373 L 204.611 178.533 205.094 179.667 C 205.486 180.584,205.710 180.800,206.269 180.800 C 206.649 180.800,207.314 180.983,207.747 181.207 C 208.179 181.431,208.533 181.533,208.533 181.434 C 208.533 180.841,207.344 178.140,207.098 178.173 C 206.934 178.195,206.307 178.285,205.705 178.373 M209.383 192.667 C 209.380 198.094,209.449 199.670,209.664 199.067 C 210.042 198.007,210.050 187.925,209.675 186.533 C 209.449 185.698,209.386 187.026,209.383 192.667 " stroke="none" fill="#4cabe2" fill-rule="evenodd"></path><path id="path1" d="M203.766 173.745 C 201.642 175.919,202.765 178.269,205.836 178.077 C 207.945 177.945,208.536 177.380,208.527 175.504 C 208.513 172.558,205.876 171.584,203.766 173.745 M240.520 175.354 C 239.174 175.914,238.667 176.923,238.667 179.041 L 238.667 180.800 237.200 180.800 C 235.911 180.800,235.733 180.865,235.733 181.333 C 235.733 181.801,235.911 181.867,237.185 181.867 L 238.636 181.867 238.718 189.288 L 238.800 196.710 239.608 198.022 C 241.967 201.853,248.410 203.121,251.221 200.308 C 252.646 198.882,253.400 195.200,252.267 195.200 C 251.844 195.200,251.732 195.380,251.727 196.067 C 251.706 199.250,248.503 201.611,246.680 199.788 C 245.529 198.637,245.333 197.076,245.333 189.054 L 245.333 181.867 248.133 181.867 C 250.756 181.867,250.933 181.833,250.933 181.333 C 250.933 180.834,250.756 180.800,248.133 180.800 L 245.333 180.800 245.333 177.867 L 245.333 174.933 243.400 174.947 C 242.333 174.955,241.042 175.137,240.520 175.354 M140.440 180.280 C 133.831 181.389,130.650 188.052,133.051 195.755 C 135.561 203.808,150.933 203.705,150.933 195.636 C 150.933 194.580,149.677 195.147,149.495 196.286 C 149.254 197.787,147.284 199.758,145.532 200.248 C 141.022 201.511,138.927 197.946,139.275 189.600 C 139.535 183.361,141.495 180.404,144.805 181.260 L 145.733 181.500 145.808 184.617 L 145.884 187.733 147.222 187.733 C 149.574 187.733,150.667 186.727,150.667 184.560 C 150.667 181.280,146.035 179.341,140.440 180.280 M221.879 180.291 C 211.993 182.229,211.261 198.341,220.928 201.213 C 226.737 202.939,232.149 200.681,232.948 196.200 C 233.115 195.264,233.084 195.200,232.459 195.200 C 231.913 195.200,231.762 195.363,231.624 196.102 C 231.064 199.085,227.141 201.311,224.458 200.168 C 222.597 199.375,221.656 197.494,221.407 194.067 L 221.257 192.000 223.229 191.998 C 227.906 191.993,233.512 191.095,233.765 190.311 C 235.674 184.399,229.118 178.872,221.879 180.291 M191.867 180.861 C 190.795 181.243,188.801 182.621,188.613 183.110 C 188.501 183.402,188.261 183.258,187.674 182.546 C 186.446 181.055,185.715 180.800,182.680 180.800 C 179.715 180.800,178.960 181.299,181.067 181.867 L 182.133 182.154 182.133 190.940 L 182.133 199.726 180.933 200.028 C 178.045 200.755,179.445 201.067,185.600 201.067 C 191.755 201.067,193.155 200.755,190.267 200.028 L 189.067 199.726 189.067 192.163 L 189.067 184.601 190.269 183.493 C 193.069 180.912,193.867 181.165,193.867 184.633 L 193.867 187.400 194.703 187.567 C 197.794 188.185,199.832 184.981,198.126 182.184 C 197.214 180.688,194.162 180.042,191.867 180.861 M152.800 181.168 C 152.800 181.382,153.303 181.663,154.000 181.839 L 155.200 182.141 155.200 188.367 C 155.200 191.792,155.320 195.226,155.466 195.998 C 156.491 201.402,164.022 203.746,167.901 199.868 C 169.263 198.505,169.290 198.493,169.565 199.097 C 170.050 200.160,171.792 201.098,173.582 201.261 L 175.200 201.407 175.200 191.781 L 175.200 182.154 176.239 181.874 C 179.076 181.110,177.811 180.800,171.858 180.800 C 165.846 180.800,164.466 181.117,167.333 181.839 L 168.533 182.141 168.533 189.567 L 168.533 196.992 167.842 198.029 C 165.987 200.811,163.763 200.717,162.546 197.805 C 162.212 197.005,162.133 195.577,162.133 190.281 C 162.133 180.825,162.118 180.800,156.280 180.800 C 153.497 180.800,152.800 180.874,152.800 181.168 M200.267 181.137 C 200.267 181.388,200.712 181.649,201.467 181.839 L 202.667 182.141 202.667 190.933 L 202.667 199.726 201.467 200.028 C 198.579 200.755,199.978 201.067,206.133 201.067 C 210.940 201.067,212.000 201.000,212.000 200.699 C 212.000 200.317,209.944 199.654,209.537 199.905 C 209.412 199.983,209.325 196.226,209.346 191.557 C 209.386 182.187,209.412 182.390,208.047 181.547 C 206.793 180.772,200.267 180.428,200.267 181.137 M252.803 181.000 C 252.804 181.110,253.234 181.446,253.758 181.746 C 254.590 182.224,255.366 183.504,259.900 191.877 L 265.090 201.462 264.639 202.664 C 263.483 205.750,261.749 208.267,260.780 208.267 C 260.644 208.267,260.533 207.082,260.533 205.634 L 260.533 203.001 259.466 202.831 C 257.192 202.467,255.733 203.738,255.733 206.085 C 255.733 210.205,260.631 211.360,263.494 207.915 C 264.526 206.674,265.679 204.020,269.732 193.557 L 273.933 182.714 275.500 182.143 C 278.243 181.142,277.657 180.800,273.200 180.800 C 268.864 180.800,268.188 181.135,270.700 182.038 C 272.513 182.690,272.534 182.375,270.294 188.102 C 268.402 192.941,268.310 193.112,267.932 192.502 C 267.716 192.152,266.541 190.007,265.321 187.733 C 261.638 180.867,261.550 180.800,256.277 180.800 C 254.365 180.800,252.801 180.890,252.803 181.000 M225.466 181.946 C 226.586 183.066,226.931 184.337,226.928 187.333 C 226.924 190.539,226.947 190.514,223.877 190.626 L 221.333 190.718 221.333 188.914 C 221.333 182.925,223.236 179.716,225.466 181.946 M279.600 195.691 C 278.498 196.365,278.132 196.866,277.958 197.941 C 277.489 200.828,280.856 202.705,283.049 200.780 C 285.860 198.312,282.770 193.753,279.600 195.691 " stroke="none" fill="#fcfcfc" fill-rule="evenodd"></path><path id="path2" d="" stroke="none" fill="#dcf4fc" fill-rule="evenodd"></path><path id="path3" d="" stroke="none" fill="#ace4fc" fill-rule="evenodd"></path><path id="path4" d="M132.080 190.933 C 132.080 191.740,132.130 192.070,132.191 191.667 C 132.252 191.263,132.252 190.603,132.191 190.200 C 132.130 189.797,132.080 190.127,132.080 190.933 " stroke="none" fill="#8cd4fc" fill-rule="evenodd"></path></g></svg>