<svg width="182" height="27" viewBox="0 0 182 27" fill="none" xmlns="http://www.w3.org/2000/svg">
<path d="M16.2315 26L11.3715 18.98H11.0835H6.0075V26H0.1755V0.799998H11.0835C13.3155 0.799998 15.2475 1.172 16.8795 1.916C18.5355 2.66 19.8075 3.716 20.6955 5.084C21.5835 6.452 22.0275 8.072 22.0275 9.944C22.0275 11.816 21.5715 13.436 20.6595 14.804C19.7715 16.148 18.4995 17.18 16.8435 17.9L22.4955 26H16.2315ZM16.1235 9.944C16.1235 8.528 15.6675 7.448 14.7555 6.704C13.8435 5.936 12.5115 5.552 10.7595 5.552H6.0075V14.336H10.7595C12.5115 14.336 13.8435 13.952 14.7555 13.184C15.6675 12.416 16.1235 11.336 16.1235 9.944ZM46.1602 21.32V26H26.6482V0.799998H45.6922V5.48H32.4442V10.952H44.1442V15.488H32.4442V21.32H46.1602ZM67.7582 13.004H73.0862V23.228C71.7182 24.26 70.1342 25.052 68.3342 25.604C66.5342 26.156 64.7222 26.432 62.8982 26.432C60.2822 26.432 57.9302 25.88 55.8422 24.776C53.7542 23.648 52.1102 22.1 50.9102 20.132C49.7342 18.14 49.1462 15.896 49.1462 13.4C49.1462 10.904 49.7342 8.672 50.9102 6.704C52.1102 4.712 53.7662 3.164 55.8782 2.06C57.9902 0.931999 60.3662 0.368 63.0062 0.368C65.2142 0.368 67.2182 0.739999 69.0182 1.484C70.8182 2.228 72.3302 3.308 73.5542 4.724L69.8102 8.18C68.0102 6.284 65.8382 5.336 63.2942 5.336C61.6862 5.336 60.2582 5.672 59.0102 6.344C57.7622 7.016 56.7902 7.964 56.0942 9.188C55.3982 10.412 55.0502 11.816 55.0502 13.4C55.0502 14.96 55.3982 16.352 56.0942 17.576C56.7902 18.8 57.7502 19.76 58.9742 20.456C60.2222 21.128 61.6382 21.464 63.2222 21.464C64.9022 21.464 66.4142 21.104 67.7582 20.384V13.004ZM78.5036 0.799998H84.3356V26H78.5036V0.799998ZM98.5961 26.432C96.6041 26.432 94.6721 26.168 92.8001 25.64C90.9521 25.088 89.4641 24.38 88.3361 23.516L90.3161 19.124C91.3961 19.916 92.6801 20.552 94.1681 21.032C95.6561 21.512 97.1441 21.752 98.6321 21.752C100.288 21.752 101.512 21.512 102.304 21.032C103.096 20.528 103.492 19.868 103.492 19.052C103.492 18.452 103.252 17.96 102.772 17.576C102.316 17.168 101.716 16.844 100.972 16.604C100.252 16.364 99.2681 16.1 98.0201 15.812C96.1001 15.356 94.5281 14.9 93.3041 14.444C92.0801 13.988 91.0241 13.256 90.1361 12.248C89.2721 11.24 88.8401 9.896 88.8401 8.216C88.8401 6.752 89.2361 5.432 90.0281 4.256C90.8201 3.056 92.0081 2.108 93.5921 1.412C95.2001 0.715999 97.1561 0.368 99.4601 0.368C101.068 0.368 102.64 0.559999 104.176 0.943999C105.712 1.328 107.056 1.88 108.208 2.6L106.408 7.028C104.08 5.708 101.752 5.048 99.4241 5.048C97.7921 5.048 96.5801 5.312 95.7881 5.84C95.0201 6.368 94.6361 7.064 94.6361 7.928C94.6361 8.792 95.0801 9.44 95.9681 9.872C96.8801 10.28 98.2601 10.688 100.108 11.096C102.028 11.552 103.6 12.008 104.824 12.464C106.048 12.92 107.092 13.64 107.956 14.624C108.844 15.608 109.288 16.94 109.288 18.62C109.288 20.06 108.88 21.38 108.064 22.58C107.272 23.756 106.072 24.692 104.464 25.388C102.856 26.084 100.9 26.432 98.5961 26.432ZM118.142 5.552H110.078V0.799998H132.038V5.552H123.974V26H118.142V5.552ZM154.688 21.32V26H135.176V0.799998H154.22V5.48H140.972V10.952H152.672V15.488H140.972V21.32H154.688ZM175.384 26L170.524 18.98H170.236H165.16V26H159.328V0.799998H170.236C172.468 0.799998 174.4 1.172 176.032 1.916C177.688 2.66 178.96 3.716 179.848 5.084C180.736 6.452 181.18 8.072 181.18 9.944C181.18 11.816 180.724 13.436 179.812 14.804C178.924 16.148 177.652 17.18 175.996 17.9L181.648 26H175.384ZM175.276 9.944C175.276 8.528 174.82 7.448 173.908 6.704C172.996 5.936 171.664 5.552 169.912 5.552H165.16V14.336H169.912C171.664 14.336 172.996 13.952 173.908 13.184C174.82 12.416 175.276 11.336 175.276 9.944Z" fill="#4E47BB"/>
</svg>
