<svg width="385" height="373" viewBox="0 0 385 373" fill="none" xmlns="http://www.w3.org/2000/svg">
<g opacity="0.4" filter="url(#filter0_d)">
<path fill-rule="evenodd" clip-rule="evenodd" d="M189.922 45.7055C216.258 48.1033 240.259 4.16853 263.984 17.2386C287.796 30.356 271.07 79.4337 289.681 100.662C311.566 125.622 359.57 111.816 374.092 142.824C387.002 170.391 364.971 204.517 350.882 231.345C338.469 254.98 317.478 270.199 298.283 287.169C282.233 301.36 264.38 311.189 246.98 323.205C227.8 336.45 212.434 362.019 189.922 362C167.406 361.981 154.968 328.148 132.904 323.109C101.166 315.86 58.0919 354.722 37.025 327.079C16.4015 300.018 64.3255 258.819 57.4095 224.048C50.5418 189.521 2.20989 176.67 0.0872101 141.371C-1.8412 109.303 28.654 86.5886 47.7015 62.6108C66.0422 39.523 82.4565 6.46041 109.845 3.20484C139.573 -0.328935 160.125 42.9926 189.922 45.7055Z" stroke="url(#paint0_linear)" stroke-width="5"/>
</g>
<defs>
<filter id="filter0_d" x="-6.5" y="0.499817" width="391.001" height="372" filterUnits="userSpaceOnUse" color-interpolation-filters="sRGB">
<feFlood flood-opacity="0" result="BackgroundImageFix"/>
<feColorMatrix in="SourceAlpha" type="matrix" values="0 0 0 0 0 0 0 0 0 0 0 0 0 0 0 0 0 0 127 0"/>
<feOffset dy="4"/>
<feGaussianBlur stdDeviation="2"/>
<feColorMatrix type="matrix" values="0 0 0 0 0 0 0 0 0 0 0 0 0 0 0 0 0 0 0.25 0"/>
<feBlend mode="normal" in2="BackgroundImageFix" result="effect1_dropShadow"/>
<feBlend mode="normal" in="SourceGraphic" in2="effect1_dropShadow" result="shape"/>
</filter>
<linearGradient id="paint0_linear" x1="189" y1="3" x2="189" y2="362" gradientUnits="userSpaceOnUse">
<stop stop-color="#6C63FF"/>
<stop offset="1" stop-color="#63FFF6"/>
</linearGradient>
</defs>
</svg>
